<?xml version="1.0" encoding="utf-8"?>
<!-- Generator: Adobe Illustrator 20.1.0, SVG Export Plug-In . SVG Version: 6.00 Build 0)  -->
<svg version="1.1" id="Layer_1" xmlns="http://www.w3.org/2000/svg" xmlns:xlink="http://www.w3.org/1999/xlink" x="0px" y="0px"
	 viewBox="0 0 141.7 141.7" style="enable-background:new 0 0 141.7 141.7;" xml:space="preserve">
<style type="text/css">
	.st0{fill:#FFFFFF;}
</style>
<g>
	<path class="st0" d="M5.7,21.1H29l9,32.7L47,21.1h23.3v53.7H55.8V33.9L44.6,74.8H31.4L20.2,33.9v40.9H5.7V21.1z"/>
	<path class="st0" d="M75.8,21.1h19.7l11.6,18.1l11.6-18.1h19.6L116,52.3v22.5H98.2V52.3L75.8,21.1z"/>
</g>
<g>
	<path class="st0" d="M12,88.7h21.3v0.8H23v27.8h-0.8V89.5H12V88.7z"/>
	<path class="st0" d="M55.7,88.7v17.9c0,3.8-0.9,6.7-2.7,8.5c-1.8,1.8-4.4,2.8-7.8,2.8s-6-0.9-7.8-2.8s-2.7-4.7-2.7-8.5V88.7h0.8
		v17.9c0,3.4,0.8,6.1,2.4,7.8c1.6,1.8,4,2.7,7.3,2.7s5.7-0.9,7.3-2.7c1.6-1.8,2.4-4.4,2.4-7.8V88.7H55.7z"/>
	<path class="st0" d="M61.3,88.7l19.5,27.6h0.1V88.7h0.8v28.6h-1.2L60.9,89.7h-0.1v27.6h-0.8V88.7H61.3z"/>
	<path class="st0" d="M105.1,116.4v0.8H86V88.7h19v0.8H86.8V102h17.1v0.8H86.8v13.7H105.1z"/>
	<path class="st0" d="M125.7,93c-0.5-1-1.1-1.8-2-2.4c-0.8-0.6-1.8-1.1-2.9-1.3c-1.1-0.3-2.3-0.4-3.6-0.4c-1,0-2,0.1-3.1,0.3
		s-2,0.6-2.9,1.1c-0.9,0.5-1.6,1.2-2.1,2c-0.6,0.8-0.8,1.9-0.8,3.2s0.3,2.3,0.9,3.1c0.6,0.8,1.3,1.4,2.2,1.9c0.9,0.5,2,0.9,3.1,1.1
		c1.2,0.3,2.4,0.5,3.6,0.8c1.3,0.3,2.6,0.7,3.8,1s2.2,0.7,3.1,1.3s1.6,1.2,2.1,2.1c0.5,0.9,0.8,2.1,0.8,3.6c0,1.4-0.3,2.5-0.9,3.5
		c-0.6,1-1.4,1.8-2.3,2.4s-2,1.1-3.2,1.4c-1.2,0.3-2.4,0.4-3.6,0.4c-1.6,0-3.1-0.2-4.5-0.6c-1.4-0.4-2.6-1-3.6-1.8
		c-1-0.8-1.8-1.9-2.3-3.1s-0.8-2.8-0.8-4.6h0.8c0,1.7,0.3,3.2,0.8,4.3c0.5,1.2,1.2,2.2,2.1,2.9c0.9,0.7,2,1.3,3.3,1.6
		c1.3,0.3,2.7,0.5,4.2,0.5c1.1,0,2.2-0.1,3.3-0.4c1.1-0.3,2.1-0.7,3-1.2c0.9-0.6,1.6-1.3,2.1-2.2c0.5-0.9,0.8-1.9,0.8-3.2
		c0-1.4-0.3-2.6-0.9-3.4c-0.6-0.8-1.4-1.5-2.4-2c-1-0.5-2.1-0.9-3.2-1.1c-1.2-0.3-2.3-0.5-3.4-0.8c-1.1-0.3-2.3-0.5-3.4-0.8
		c-1.1-0.3-2.2-0.7-3.1-1.2c-0.9-0.5-1.7-1.2-2.2-2.1c-0.6-0.9-0.8-2-0.8-3.4c0-1.4,0.3-2.6,0.9-3.5c0.6-0.9,1.3-1.7,2.3-2.3
		c0.9-0.6,2-1,3.1-1.2s2.3-0.4,3.5-0.4c1.4,0,2.7,0.2,3.9,0.5c1.2,0.3,2.2,0.8,3.1,1.5c0.9,0.7,1.6,1.6,2.1,2.7
		c0.5,1.1,0.8,2.5,0.9,4.1h-0.8C126.5,95.2,126.2,94,125.7,93z"/>
</g>
</svg>
